# Blender 4.3.0
# www.blender.org
mtllib Player_TheDeep.mtl
o body
v 0.700000 0.528940 -0.700000
v 0.700000 0.528940 0.700000
v -0.700000 0.528940 -0.700000
v -0.700000 0.528940 0.700000
v 0.700000 2.528940 0.525000
v 0.700000 2.278940 0.700000
v 0.700000 2.525862 0.552376
v 0.700000 2.516704 0.579078
v 0.700000 2.501691 0.604448
v 0.700000 2.481194 0.627862
v 0.700000 2.455716 0.648744
v 0.700000 2.425886 0.666578
v 0.700000 2.392437 0.680926
v 0.700000 2.356194 0.691435
v 0.700000 2.318048 0.697845
v -0.700000 2.278940 0.700000
v -0.700000 2.528940 0.525000
v -0.700000 2.318048 0.697845
v -0.700000 2.356194 0.691435
v -0.700000 2.392437 0.680926
v -0.700000 2.425886 0.666578
v -0.700000 2.455716 0.648744
v -0.700000 2.481194 0.627862
v -0.700000 2.501691 0.604448
v -0.700000 2.516704 0.579078
v -0.700000 2.525862 0.552376
v 0.700000 2.278940 -0.700000
v 0.700000 2.528940 -0.525000
v 0.700000 2.318048 -0.697845
v 0.700000 2.356194 -0.691435
v 0.700000 2.392437 -0.680926
v 0.700000 2.425886 -0.666578
v 0.700000 2.455716 -0.648744
v 0.700000 2.481194 -0.627862
v 0.700000 2.501691 -0.604448
v 0.700000 2.516704 -0.579078
v 0.700000 2.525862 -0.552376
v -0.700000 2.528940 -0.525000
v -0.700000 2.278940 -0.700000
v -0.700000 2.525862 -0.552376
v -0.700000 2.516704 -0.579078
v -0.700000 2.501691 -0.604448
v -0.700000 2.481194 -0.627862
v -0.700000 2.455716 -0.648744
v -0.700000 2.425886 -0.666578
v -0.700000 2.392437 -0.680926
v -0.700000 2.356194 -0.691435
v -0.700000 2.318048 -0.697845
vn -1.0000 -0.0000 -0.0000
vn -0.0000 -1.0000 -0.0000
vn -0.0000 -0.0000 1.0000
vn -0.0000 1.0000 -0.0000
vn -0.0000 0.9937 0.1117
vn -0.0000 0.9459 0.3244
vn -0.0000 0.8606 0.5093
vn -0.0000 0.7524 0.6587
vn -0.0000 0.6339 0.7734
vn -0.0000 0.5131 0.8583
vn -0.0000 0.3942 0.9190
vn -0.0000 0.2785 0.9604
vn -0.0000 0.1657 0.9862
vn -0.0000 0.0550 0.9985
vn -0.0000 -0.0000 -1.0000
vn -0.0000 0.9937 -0.1117
vn -0.0000 0.9459 -0.3244
vn -0.0000 0.8606 -0.5093
vn -0.0000 0.7524 -0.6587
vn -0.0000 0.6339 -0.7734
vn -0.0000 0.5131 -0.8583
vn -0.0000 0.3942 -0.9190
vn -0.0000 0.2785 -0.9604
vn -0.0000 0.1657 -0.9862
vn -0.0000 0.0550 -0.9985
vn 1.0000 -0.0000 -0.0000
vt 0.375000 0.000000
vt 0.593750 0.000000
vt 0.598639 0.000385
vt 0.603407 0.001529
vt 0.607937 0.003406
vt 0.612118 0.005968
vt 0.615847 0.009153
vt 0.619032 0.012882
vt 0.621594 0.017063
vt 0.623470 0.021593
vt 0.624615 0.026361
vt 0.625000 0.031250
vt 0.625000 0.218750
vt 0.624615 0.223639
vt 0.623470 0.228407
vt 0.621594 0.232937
vt 0.619032 0.237118
vt 0.615847 0.240847
vt 0.612118 0.244032
vt 0.607937 0.246594
vt 0.603407 0.248471
vt 0.598639 0.249615
vt 0.593750 0.250000
vt 0.375000 0.250000
vt 0.125000 0.500000
vt 0.375000 0.500000
vt 0.375000 0.750000
vt 0.125000 0.750000
vt 0.593750 0.750000
vt 0.593750 1.000000
vt 0.375000 1.000000
vt 0.625000 0.531250
vt 0.875000 0.531250
vt 0.875000 0.718750
vt 0.625000 0.718750
vt 0.875000 0.723639
vt 0.625000 0.723639
vt 0.875000 0.728407
vt 0.625000 0.728407
vt 0.875000 0.732937
vt 0.625000 0.732937
vt 0.875000 0.737118
vt 0.625000 0.737118
vt 0.875000 0.750000
vt 0.625000 0.750000
vt 0.625000 1.000000
vt 0.612118 1.000000
vt 0.612118 0.750000
vt 0.607937 1.000000
vt 0.607937 0.750000
vt 0.603407 1.000000
vt 0.603407 0.750000
vt 0.598639 1.000000
vt 0.598639 0.750000
vt 0.593750 0.500000
vt 0.625000 0.526361
vt 0.875000 0.526361
vt 0.625000 0.521593
vt 0.875000 0.521593
vt 0.625000 0.517063
vt 0.875000 0.517063
vt 0.625000 0.512882
vt 0.875000 0.512882
vt 0.625000 0.500000
vt 0.875000 0.500000
vt 0.625000 0.250000
vt 0.612118 0.500000
vt 0.612118 0.250000
vt 0.607937 0.500000
vt 0.607937 0.250000
vt 0.603407 0.500000
vt 0.603407 0.250000
vt 0.598639 0.500000
vt 0.598639 0.250000
vt 0.598639 0.500385
vt 0.603407 0.501529
vt 0.607937 0.503406
vt 0.612118 0.505968
vt 0.615847 0.509153
vt 0.619032 0.512882
vt 0.621594 0.517063
vt 0.623470 0.521593
vt 0.624615 0.526362
vt 0.624615 0.723639
vt 0.623471 0.728407
vt 0.621594 0.732937
vt 0.619032 0.737118
vt 0.615847 0.740847
vt 0.612118 0.744032
vt 0.607937 0.746594
vt 0.603407 0.748470
vt 0.598639 0.749615
s 0
usemtl Material
f 4/1/1 16/2/1 18/3/1 19/4/1 20/5/1 21/6/1 22/7/1 23/8/1 24/9/1 25/10/1 26/11/1 17/12/1 38/13/1 40/14/1 41/15/1 42/16/1 43/17/1 44/18/1 45/19/1 46/20/1 47/21/1 48/22/1 39/23/1 3/24/1
f 3/25/2 1/26/2 2/27/2 4/28/2
f 2/27/3 6/29/3 16/30/3 4/31/3
f 28/32/4 38/33/4 17/34/4 5/35/4
f 5/35/5 17/34/5 26/36/5 7/37/5
f 7/37/6 26/36/6 25/38/6 8/39/6
f 8/39/7 25/38/7 24/40/7 9/41/7
f 9/41/8 24/40/8 23/42/8 10/43/8
f 10/43/9 23/42/9 22/44/9 11/45/9
f 11/45/10 22/46/10 21/47/10 12/48/10
f 12/48/11 21/47/11 20/49/11 13/50/11
f 13/50/12 20/49/12 19/51/12 14/52/12
f 14/52/13 19/51/13 18/53/13 15/54/13
f 15/54/14 18/53/14 16/30/14 6/29/14
f 3/24/15 39/23/15 27/55/15 1/26/15
f 38/33/16 28/32/16 37/56/16 40/57/16
f 40/57/17 37/56/17 36/58/17 41/59/17
f 41/59/18 36/58/18 35/60/18 42/61/18
f 42/61/19 35/60/19 34/62/19 43/63/19
f 43/63/20 34/62/20 33/64/20 44/65/20
f 44/66/21 33/64/21 32/67/21 45/68/21
f 45/68/22 32/67/22 31/69/22 46/70/22
f 46/70/23 31/69/23 30/71/23 47/72/23
f 47/72/24 30/71/24 29/73/24 48/74/24
f 48/74/25 29/73/25 27/55/25 39/23/25
f 1/26/26 27/55/26 29/75/26 30/76/26 31/77/26 32/78/26 33/79/26 34/80/26 35/81/26 36/82/26 37/83/26 28/32/26 5/35/26 7/84/26 8/85/26 9/86/26 10/87/26 11/88/26 12/89/26 13/90/26 14/91/26 15/92/26 6/29/26 2/27/26
o head
v 0.500000 3.615453 0.375000
v 0.500000 3.490453 0.500000
v 0.500000 3.613914 0.394554
v 0.500000 3.609335 0.413627
v 0.500000 3.601829 0.431749
v 0.500000 3.591580 0.448473
v 0.500000 3.578842 0.463388
v 0.500000 3.563926 0.476127
v 0.500000 3.547202 0.486376
v 0.500000 3.529080 0.493882
v 0.500000 3.510008 0.498461
v -0.500000 3.490453 0.500000
v -0.500000 3.615453 0.375000
v -0.500000 3.510008 0.498461
v -0.500000 3.529080 0.493882
v -0.500000 3.547202 0.486376
v -0.500000 3.563926 0.476127
v -0.500000 3.578842 0.463388
v -0.500000 3.591580 0.448473
v -0.500000 3.601829 0.431749
v -0.500000 3.609335 0.413627
v -0.500000 3.613914 0.394554
v 0.500000 3.490453 -0.500000
v 0.500000 3.615453 -0.375000
v 0.500000 3.510008 -0.498461
v 0.500000 3.529080 -0.493882
v 0.500000 3.547202 -0.486376
v 0.500000 3.563926 -0.476127
v 0.500000 3.578842 -0.463388
v 0.500000 3.591580 -0.448473
v 0.500000 3.601829 -0.431749
v 0.500000 3.609335 -0.413627
v 0.500000 3.613914 -0.394554
v -0.500000 3.615453 -0.375000
v -0.500000 3.490453 -0.500000
v -0.500000 3.613914 -0.394554
v -0.500000 3.609335 -0.413627
v -0.500000 3.601829 -0.431749
v -0.500000 3.591580 -0.448473
v -0.500000 3.578842 -0.463388
v -0.500000 3.563926 -0.476127
v -0.500000 3.547202 -0.486376
v -0.500000 3.529080 -0.493882
v -0.500000 3.510008 -0.498461
v -0.375000 2.615453 -0.500000
v -0.500000 2.740453 -0.500000
v -0.394554 2.616992 -0.500000
v -0.413627 2.621571 -0.500000
v -0.431749 2.629077 -0.500000
v -0.448473 2.639326 -0.500000
v -0.463388 2.652065 -0.500000
v -0.476127 2.666980 -0.500000
v -0.486376 2.683704 -0.500000
v -0.493882 2.701826 -0.500000
v -0.498461 2.720899 -0.500000
v -0.500000 2.740453 0.500000
v -0.375000 2.615453 0.500000
v -0.498461 2.720899 0.500000
v -0.493882 2.701826 0.500000
v -0.486376 2.683704 0.500000
v -0.476127 2.666980 0.500000
v -0.463388 2.652065 0.500000
v -0.448473 2.639326 0.500000
v -0.431749 2.629077 0.500000
v -0.413627 2.621571 0.500000
v -0.394554 2.616992 0.500000
v 0.500000 2.740453 -0.500000
v 0.375000 2.615453 -0.500000
v 0.498461 2.720899 -0.500000
v 0.493882 2.701826 -0.500000
v 0.486376 2.683704 -0.500000
v 0.476127 2.666980 -0.500000
v 0.463388 2.652065 -0.500000
v 0.448473 2.639326 -0.500000
v 0.431749 2.629077 -0.500000
v 0.413627 2.621571 -0.500000
v 0.394554 2.616992 -0.500000
v 0.375000 2.615453 0.500000
v 0.500000 2.740453 0.500000
v 0.394554 2.616992 0.500000
v 0.413627 2.621571 0.500000
v 0.431749 2.629077 0.500000
v 0.448473 2.639326 0.500000
v 0.463388 2.652065 0.500000
v 0.476127 2.666980 0.500000
v 0.486376 2.683704 0.500000
v 0.493882 2.701826 0.500000
v 0.498461 2.720899 0.500000
vn -0.0000 -0.0000 1.0000
vn -0.0000 1.0000 -0.0000
vn -0.0000 0.9969 0.0785
vn -0.0000 0.9724 0.2334
vn -0.0000 0.9239 0.3827
vn -0.0000 0.8526 0.5225
vn -0.0000 0.7604 0.6494
vn -0.0000 0.6494 0.7604
vn -0.0000 0.5225 0.8526
vn -0.0000 0.3827 0.9239
vn -0.0000 0.2334 0.9724
vn -0.0000 0.0785 0.9969
vn -1.0000 -0.0000 -0.0000
vn -0.0000 0.9969 -0.0785
vn -0.0000 0.9724 -0.2334
vn -0.0000 0.9239 -0.3827
vn -0.0000 0.8526 -0.5225
vn -0.0000 0.7604 -0.6494
vn -0.0000 0.6494 -0.7604
vn -0.0000 0.5225 -0.8526
vn -0.0000 0.3827 -0.9239
vn -0.0000 0.2334 -0.9724
vn -0.0000 0.0785 -0.9969
vn -0.0000 -0.0000 -1.0000
vn -0.0785 -0.9969 -0.0000
vn -0.2334 -0.9724 -0.0000
vn -0.3827 -0.9239 -0.0000
vn -0.5225 -0.8526 -0.0000
vn -0.6494 -0.7604 -0.0000
vn -0.7604 -0.6494 -0.0000
vn -0.8526 -0.5225 -0.0000
vn -0.9239 -0.3827 -0.0000
vn -0.9724 -0.2334 -0.0000
vn -0.9969 -0.0785 -0.0000
vn 1.0000 -0.0000 -0.0000
vn 0.0785 -0.9969 -0.0000
vn 0.2334 -0.9724 -0.0000
vn 0.3827 -0.9239 -0.0000
vn 0.5225 -0.8526 -0.0000
vn 0.6494 -0.7604 -0.0000
vn 0.7604 -0.6494 -0.0000
vn 0.8526 -0.5225 -0.0000
vn 0.9239 -0.3827 -0.0000
vn 0.9724 -0.2334 -0.0000
vn 0.9969 -0.0785 -0.0000
vn -0.0000 -1.0000 -0.0000
vt 0.375000 0.781250
vt 0.375385 0.776362
vt 0.376530 0.771593
vt 0.378406 0.767063
vt 0.380968 0.762882
vt 0.384153 0.759153
vt 0.387882 0.755968
vt 0.392063 0.753406
vt 0.396593 0.751529
vt 0.401361 0.750385
vt 0.406250 0.750000
vt 0.593750 0.750000
vt 0.593750 1.000000
vt 0.406250 1.000000
vt 0.401361 0.999615
vt 0.396593 0.998470
vt 0.392063 0.996594
vt 0.387882 0.994032
vt 0.384153 0.990847
vt 0.380968 0.987118
vt 0.378406 0.982937
vt 0.376529 0.978407
vt 0.375385 0.973639
vt 0.375000 0.968750
vt 0.625000 0.531250
vt 0.875000 0.531250
vt 0.875000 0.718750
vt 0.625000 0.718750
vt 0.875000 0.723639
vt 0.625000 0.723639
vt 0.875000 0.728407
vt 0.625000 0.728407
vt 0.875000 0.732937
vt 0.625000 0.732937
vt 0.875000 0.737118
vt 0.625000 0.737118
vt 0.875000 0.750000
vt 0.625000 0.750000
vt 0.625000 1.000000
vt 0.612118 1.000000
vt 0.612118 0.750000
vt 0.607937 1.000000
vt 0.607937 0.750000
vt 0.603407 1.000000
vt 0.603407 0.750000
vt 0.598639 1.000000
vt 0.598639 0.750000
vt 0.406250 0.000000
vt 0.593750 0.000000
vt 0.598639 0.000385
vt 0.603407 0.001529
vt 0.607937 0.003406
vt 0.612118 0.005968
vt 0.615847 0.009153
vt 0.619032 0.012882
vt 0.621594 0.017063
vt 0.623470 0.021593
vt 0.624615 0.026361
vt 0.625000 0.031250
vt 0.625000 0.218750
vt 0.624615 0.223639
vt 0.623470 0.228407
vt 0.621594 0.232937
vt 0.619032 0.237118
vt 0.615847 0.240847
vt 0.612118 0.244032
vt 0.607937 0.246594
vt 0.603407 0.248471
vt 0.598639 0.249615
vt 0.593750 0.250000
vt 0.406250 0.250000
vt 0.625000 0.526361
vt 0.875000 0.526361
vt 0.625000 0.521593
vt 0.875000 0.521593
vt 0.625000 0.517063
vt 0.875000 0.517063
vt 0.625000 0.512882
vt 0.875000 0.512882
vt 0.625000 0.500000
vt 0.875000 0.500000
vt 0.625000 0.250000
vt 0.612118 0.500000
vt 0.612118 0.250000
vt 0.607937 0.500000
vt 0.607937 0.250000
vt 0.603407 0.500000
vt 0.603407 0.250000
vt 0.598639 0.500000
vt 0.598639 0.250000
vt 0.593750 0.500000
vt 0.375000 0.281250
vt 0.375385 0.276361
vt 0.376529 0.271593
vt 0.378406 0.267063
vt 0.380968 0.262882
vt 0.384153 0.259153
vt 0.387882 0.255968
vt 0.392063 0.253406
vt 0.396593 0.251529
vt 0.401361 0.250385
vt 0.406250 0.500000
vt 0.401361 0.499615
vt 0.396593 0.498471
vt 0.392063 0.496594
vt 0.387882 0.494032
vt 0.384153 0.490847
vt 0.380968 0.487118
vt 0.378406 0.482937
vt 0.376529 0.478407
vt 0.375385 0.473639
vt 0.375000 0.468750
vt 0.156250 0.500000
vt 0.156250 0.750000
vt 0.151361 0.750000
vt 0.151361 0.500000
vt 0.146593 0.750000
vt 0.146593 0.500000
vt 0.142063 0.750000
vt 0.142063 0.500000
vt 0.137882 0.750000
vt 0.137882 0.500000
vt 0.125000 0.750000
vt 0.125000 0.500000
vt 0.375000 0.250000
vt 0.375000 0.000000
vt 0.387882 0.000000
vt 0.387882 0.250000
vt 0.392063 0.000000
vt 0.392063 0.250000
vt 0.396593 0.000000
vt 0.396593 0.250000
vt 0.401361 0.000000
vt 0.401361 0.250000
vt 0.598639 0.500385
vt 0.603407 0.501529
vt 0.607937 0.503406
vt 0.612118 0.505968
vt 0.615847 0.509153
vt 0.619032 0.512882
vt 0.621594 0.517063
vt 0.623470 0.521593
vt 0.624615 0.526362
vt 0.624615 0.723639
vt 0.623471 0.728407
vt 0.621594 0.732937
vt 0.619032 0.737118
vt 0.615847 0.740847
vt 0.612118 0.744032
vt 0.607937 0.746594
vt 0.603407 0.748470
vt 0.598639 0.749615
vt 0.343750 0.750000
vt 0.343750 0.500000
vt 0.348639 0.500000
vt 0.348639 0.750000
vt 0.353407 0.500000
vt 0.353407 0.750000
vt 0.357937 0.500000
vt 0.357937 0.750000
vt 0.362118 0.500000
vt 0.362118 0.750000
vt 0.375000 0.500000
vt 0.375000 0.750000
vt 0.387882 0.500000
vt 0.387882 0.750000
vt 0.392063 0.500000
vt 0.392063 0.750000
vt 0.396593 0.500000
vt 0.396593 0.750000
vt 0.401361 0.500000
vt 0.401361 0.750000
s 0
usemtl Material.001
f 126/93/27 128/94/27 129/95/27 130/96/27 131/97/27 132/98/27 133/99/27 134/100/27 135/101/27 136/102/27 127/103/27 50/104/27 60/105/27 104/106/27 106/107/27 107/108/27 108/109/27 109/110/27 110/111/27 111/112/27 112/113/27 113/114/27 114/115/27 105/116/27
f 72/117/28 82/118/28 61/119/28 49/120/28
f 49/120/29 61/119/29 70/121/29 51/122/29
f 51/122/30 70/121/30 69/123/30 52/124/30
f 52/124/31 69/123/31 68/125/31 53/126/31
f 53/126/32 68/125/32 67/127/32 54/128/32
f 54/128/33 67/127/33 66/129/33 55/130/33
f 55/130/34 66/131/34 65/132/34 56/133/34
f 56/133/35 65/132/35 64/134/35 57/135/35
f 57/135/36 64/134/36 63/136/36 58/137/36
f 58/137/37 63/136/37 62/138/37 59/139/37
f 59/139/38 62/138/38 60/105/38 50/104/38
f 104/140/39 60/141/39 62/142/39 63/143/39 64/144/39 65/145/39 66/146/39 67/147/39 68/148/39 69/149/39 70/150/39 61/151/39 82/152/39 84/153/39 85/154/39 86/155/39 87/156/39 88/157/39 89/158/39 90/159/39 91/160/39 92/161/39 83/162/39 94/163/39
f 82/118/40 72/117/40 81/164/40 84/165/40
f 84/165/41 81/164/41 80/166/41 85/167/41
f 85/167/42 80/166/42 79/168/42 86/169/42
f 86/169/43 79/168/43 78/170/43 87/171/43
f 87/171/44 78/170/44 77/172/44 88/173/44
f 88/174/45 77/172/45 76/175/45 89/176/45
f 89/176/46 76/175/46 75/177/46 90/178/46
f 90/178/47 75/177/47 74/179/47 91/180/47
f 91/180/48 74/179/48 73/181/48 92/182/48
f 92/182/49 73/181/49 71/183/49 83/162/49
f 93/184/50 95/185/50 96/186/50 97/187/50 98/188/50 99/189/50 100/190/50 101/191/50 102/192/50 103/193/50 94/163/50 83/162/50 71/183/50 115/194/50 117/195/50 118/196/50 119/197/50 120/198/50 121/199/50 122/200/50 123/201/50 124/202/50 125/203/50 116/204/50
f 93/205/51 105/206/51 114/207/51 95/208/51
f 95/208/52 114/207/52 113/209/52 96/210/52
f 96/210/53 113/209/53 112/211/53 97/212/53
f 97/212/54 112/211/54 111/213/54 98/214/54
f 98/214/55 111/213/55 110/215/55 99/216/55
f 99/217/56 110/218/56 109/219/56 100/220/56
f 100/220/57 109/219/57 108/221/57 101/222/57
f 101/222/58 108/221/58 107/223/58 102/224/58
f 102/224/59 107/223/59 106/225/59 103/226/59
f 103/226/60 106/225/60 104/140/60 94/163/60
f 115/194/61 71/183/61 73/227/61 74/228/61 75/229/61 76/230/61 77/231/61 78/232/61 79/233/61 80/234/61 81/235/61 72/117/61 49/120/61 51/236/61 52/237/61 53/238/61 54/239/61 55/240/61 56/241/61 57/242/61 58/243/61 59/244/61 50/104/61 127/103/61
f 126/245/62 116/246/62 125/247/62 128/248/62
f 128/248/63 125/247/63 124/249/63 129/250/63
f 129/250/64 124/249/64 123/251/64 130/252/64
f 130/252/65 123/251/65 122/253/65 131/254/65
f 131/254/66 122/253/66 121/255/66 132/256/66
f 132/256/67 121/255/67 120/257/67 133/258/67
f 133/258/68 120/257/68 119/259/68 134/260/68
f 134/260/69 119/259/69 118/261/69 135/262/69
f 135/262/70 118/261/70 117/263/70 136/264/70
f 136/264/71 117/263/71 115/194/71 127/103/71
f 93/205/72 116/246/72 126/245/72 105/206/72
