# Blender 4.3.0
# www.blender.org
mtllib room_NSEW_TheDeep.mtl
o Cube
v 10.000000 16.999996 -10.000000
v 9.750000 16.749996 -9.750000
v 10.000000 -3.000000 -10.000000
v 9.750000 -2.750003 -9.750000
v 10.000000 16.999996 10.000000
v 9.750000 16.749996 9.750000
v 10.000000 -3.000000 10.000000
v 9.750000 -2.750003 9.750000
v -10.000000 16.999996 -10.000000
v -9.750000 16.749996 -9.750000
v -10.000000 -3.000000 -10.000000
v -9.750000 -2.750003 -9.750000
v -10.000000 16.999996 10.000000
v -9.750000 16.749996 9.750000
v -10.000000 -3.000000 10.000000
v -9.750000 -2.750003 9.750000
v 2.000000 6.749998 10.000000
v -2.000000 -2.750002 10.000000
v -2.000000 6.749998 10.000000
v 2.000000 -2.750002 10.000000
v -2.000000 -2.750002 9.750000
v -2.000000 6.749998 9.750000
v 2.000000 -2.750002 9.750000
v 2.000000 6.749998 9.750000
v -2.000000 6.749998 -10.000000
v -2.000000 -2.750002 -10.000000
v 2.000000 -2.750002 -10.000000
v 2.000000 6.749998 -10.000000
v -2.000000 -2.750002 -9.750000
v 2.000000 -2.750002 -9.750000
v 2.000000 6.749998 -9.750000
v -2.000000 6.749998 -9.750000
v 10.000000 6.749999 -2.000000
v 10.000000 6.749999 2.000000
v 10.000000 -2.750001 2.000000
v 10.000000 -2.750001 -2.000000
v 9.750000 6.749999 2.000000
v 9.750000 -2.750001 2.000000
v 9.750000 -2.750001 -2.000000
v 9.750000 6.749999 -2.000000
v -10.000000 6.750000 2.000000
v -10.000000 -2.750000 2.000000
v -10.000000 6.750000 -2.000000
v -10.000000 -2.750000 -2.000000
v -9.750000 -2.750000 2.000000
v -9.750000 6.750000 -2.000000
v -9.750000 -2.750000 -2.000000
v -9.750000 6.750000 2.000000
vn -0.0000 1.0000 -0.0000
vn -0.0000 -0.0000 1.0000
vn -1.0000 -0.0000 -0.0000
vn -0.0000 -1.0000 -0.0000
vn 1.0000 -0.0000 -0.0000
vn -0.0000 -0.0000 -1.0000
vn -0.0000 0.3916 -0.9202
vn -0.0000 0.2729 0.9620
vt 0.625000 0.500000
vt 0.875000 0.500000
vt 0.875000 0.750000
vt 0.625000 0.750000
vt 0.378125 0.900000
vt 0.375000 1.000000
vt 0.375000 0.750000
vt 0.378125 0.850000
vt 0.496875 0.850000
vt 0.625000 1.000000
vt 0.496875 0.900000
vt 0.375000 0.000000
vt 0.625000 0.000000
vt 0.625000 0.250000
vt 0.375000 0.250000
vt 0.378125 0.150000
vt 0.496875 0.150000
vt 0.496875 0.100000
vt 0.378125 0.100000
vt 0.125000 0.500000
vt 0.375000 0.500000
vt 0.125000 0.750000
vt 0.378125 0.600000
vt 0.378125 0.650000
vt 0.496875 0.650000
vt 0.496875 0.600000
vt 0.496875 0.350000
vt 0.378125 0.350000
vt 0.378125 0.400000
vt 0.496875 0.400000
vt 0.496795 0.900641
vt 0.375000 0.900641
vt 0.375000 0.849359
vt 0.496795 0.849359
vt 0.375000 0.099359
vt 0.375000 0.150641
vt 0.496795 0.099359
vt 0.496795 0.150641
vt 0.375000 0.650641
vt 0.375000 0.599359
vt 0.496795 0.599359
vt 0.496795 0.650641
vt 0.496795 0.400641
vt 0.375000 0.400641
vt 0.375000 0.349359
vt 0.496795 0.349359
vt 0.625000 0.625000
vt 0.875000 0.625000
vt 0.875000 0.609375
vt 0.625000 0.609375
vt 0.625000 0.125000
vt 0.375000 0.125000
vt 0.375000 0.140625
vt 0.625000 0.140625
vt 0.125000 0.609375
vt 0.125000 0.625000
vt 0.375000 0.625000
vt 0.375000 0.609375
vt 0.625000 0.640625
vt 0.875000 0.640625
vt 0.375000 0.109375
vt 0.375000 0.125000
vt 0.625000 0.125000
vt 0.625000 0.109375
vt 0.375000 0.640625
vt 0.125000 0.640625
vt 0.750000 0.750000
vt 0.765625 0.750000
vt 0.765625 0.500000
vt 0.750000 0.500000
vt 0.625000 0.890625
vt 0.625000 0.875000
vt 0.375000 0.875000
vt 0.375000 0.890625
vt 0.250000 0.750000
vt 0.250000 0.500000
vt 0.234375 0.500000
vt 0.234375 0.750000
vt 0.375000 0.359375
vt 0.375000 0.375000
vt 0.625000 0.375000
vt 0.625000 0.359375
vt 0.750000 0.500000
vt 0.734375 0.500000
vt 0.734375 0.750000
vt 0.750000 0.750000
vt 0.375000 0.859375
vt 0.625000 0.859375
vt 0.250000 0.500000
vt 0.250000 0.750000
vt 0.265625 0.750000
vt 0.265625 0.500000
vt 0.625000 0.375000
vt 0.375000 0.375000
vt 0.375000 0.390625
vt 0.625000 0.390625
s 0
usemtl Material
f 1/1/1 9/2/1 13/3/1 5/4/1
f 18/5/2 15/6/2 7/7/2 20/8/2
f 17/9/2 20/8/2 7/7/2 5/4/2 13/10/2 15/6/2 18/5/2 19/11/2
f 15/12/3 13/13/3 9/14/3 11/15/3 44/16/3 43/17/3 41/18/3 42/19/3
f 11/15/3 15/12/3 42/19/3 44/16/3
f 11/20/4 3/21/4 7/7/4 15/22/4
f 36/23/5 3/21/5 1/1/5 5/4/5 7/7/5 35/24/5 34/25/5 33/26/5
f 35/24/5 7/7/5 3/21/5 36/23/5
f 25/27/6 26/28/6 11/15/6 9/14/6 1/1/6 3/21/6 27/29/6 28/30/6
f 27/29/6 3/21/6 11/15/6 26/28/6
f 2/1/4 6/4/4 14/3/4 10/2/4
f 22/31/6 21/32/6 16/6/6 14/10/6 6/4/6 8/7/6 23/33/6 24/34/6
f 23/33/7 8/7/7 16/6/7 21/32/7
f 45/35/5 16/12/5 12/15/5 47/36/5
f 47/36/5 12/15/5 10/14/5 14/13/5 16/12/5 45/35/5 48/37/5 46/38/5
f 12/20/1 16/22/1 8/7/1 4/21/1
f 38/39/3 8/7/3 6/4/3 2/1/3 4/21/3 39/40/3 40/41/3 37/42/3
f 39/40/3 4/21/3 8/7/3 38/39/3
f 31/43/2 30/44/2 4/21/2 2/1/2 10/14/2 12/15/2 29/45/2 32/46/2
f 29/45/8 12/15/8 4/21/8 30/44/8
f 17/47/4 19/48/4 22/49/4 24/50/4
f 19/51/5 18/52/5 21/53/5 22/54/5
f 21/55/1 18/56/1 20/57/1 23/58/1
f 23/58/3 20/57/3 17/47/3 24/50/3
f 25/48/4 28/47/4 31/59/4 32/60/4
f 29/61/5 26/62/5 25/63/5 32/64/5
f 30/65/1 27/57/1 26/56/1 29/66/1
f 31/59/3 28/47/3 27/57/3 30/65/3
f 34/67/4 37/68/4 40/69/4 33/70/4
f 37/71/6 34/72/6 35/73/6 38/74/6
f 35/75/1 36/76/1 39/77/1 38/78/1
f 39/79/2 36/80/2 33/81/2 40/82/2
f 43/83/4 46/84/4 48/85/4 41/86/4
f 45/87/6 42/73/6 41/72/6 48/88/6
f 44/89/1 42/90/1 45/91/1 47/92/1
f 43/93/2 44/94/2 47/95/2 46/96/2
